<?xml version="1.0" encoding="utf-8"?>
<!-- Generator: Adobe Illustrator 26.5.0, SVG Export Plug-In . SVG Version: 6.00 Build 0)  -->
<svg version="1.1" id="Stonly_logotype_x26_signet" xmlns="http://www.w3.org/2000/svg" xmlns:xlink="http://www.w3.org/1999/xlink"
	 x="0px" y="0px" viewBox="0 0 400 400" enable-background="new 0 0 400 400" xml:space="preserve">
<g id="Stonly_x5F_signet_x5F_black">
	<g>
		<g>
			<path fill-rule="evenodd" clip-rule="evenodd" fill="#282547" d="M233.8,184.9c-8,0-14.5,6.6-14.5,14.7c0,8.1,6.5,14.7,14.5,14.7
				c8,0,14.5-6.6,14.5-14.7C248.3,191.6,241.8,184.9,233.8,184.9z"/>
			<path fill-rule="evenodd" clip-rule="evenodd" fill="#282547" d="M194.5,184.9h-28.3c-8,0-14.5,6.6-14.5,14.7
				c0,8.1,6.5,14.7,14.5,14.7h28.3c8,0,14.5-6.6,14.5-14.7C209,191.6,202.5,184.9,194.5,184.9z"/>
		</g>
		<g>
			<path fill-rule="evenodd" clip-rule="evenodd" fill="#282547" d="M252,236.5h-64.6c-8,0-14.5,6.6-14.5,14.7
				c0,8.1,6.5,14.7,14.5,14.7H252c8,0,14.5-6.6,14.5-14.7C266.5,243.1,259.9,236.5,252,236.5z"/>
			<path fill-rule="evenodd" clip-rule="evenodd" fill="#282547" d="M148,236.5c-8,0-14.5,6.6-14.5,14.7c0,8.1,6.5,14.7,14.5,14.7
				c8,0,14.5-6.6,14.5-14.7C162.5,243.1,156,236.5,148,236.5z"/>
		</g>
		<path fill-rule="evenodd" clip-rule="evenodd" fill="#282547" d="M209.6,133.3h-19.2c-8,0-14.5,6.6-14.5,14.7
			c0,8.1,6.5,14.7,14.5,14.7h19.2c8,0,14.5-6.6,14.5-14.7C224.1,140,217.6,133.3,209.6,133.3z"/>
	</g>
</g>
</svg>
