<?xml version="1.0" encoding="utf-8"?>
<!-- Generator: Adobe Illustrator 26.5.0, SVG Export Plug-In . SVG Version: 6.00 Build 0)  -->
<svg version="1.1" id="Layer_1" xmlns="http://www.w3.org/2000/svg" xmlns:xlink="http://www.w3.org/1999/xlink" x="0px" y="0px"
	 viewBox="0 0 1005.1 400" enable-background="new 0 0 1005.1 400" xml:space="preserve">
<g>
	<g>
		<path fill="#282547" d="M359.8,203.6l-12-3.3c-3.5-0.8-6.1-2.1-7.9-3.9c-1.8-1.8-2.7-3.9-2.7-6.4c0-1.4,0.4-2.6,1.1-3.6
			c0.8-1,1.8-2,3-2.8c1.2-0.8,2.6-1.4,4.1-1.8c1.5-0.3,3-0.5,4.3-0.5c4,0,7.9,0.9,11.8,2.6c3.9,1.7,7,4.1,9.3,7.1l16-13.1
			c-3.9-5.7-8.7-9.9-14.5-12.6c-5.8-2.8-12.7-4.1-20.7-4.1c-5.5,0-10.6,0.7-15.2,2.2c-4.6,1.5-8.6,3.5-11.9,6.1
			c-3.3,2.6-5.9,5.8-7.8,9.5c-1.9,3.7-2.9,7.8-3,12.2c-0.3,7.3,1.9,13.7,6.5,19.2c4.6,5.5,11.2,9.2,19.6,11.1l11,2.5
			c5.8,1.4,9.8,2.9,12.1,4.7c2.3,1.7,3.4,4.1,3.4,7.1c0,2.9-1.5,5.4-4.6,7.6c-3,2.1-6.6,3.2-10.6,3.2c-5.7,0-10.8-1.1-15.5-3.3
			c-4.7-2.2-8.4-5.3-11.2-9.3l-17.2,14.7c4.4,6.4,10.1,11.2,17.1,14.4c7,3.2,15,4.9,24.1,4.9c6.2,0,11.8-0.9,16.9-2.6
			c5-1.7,9.4-4.1,13.2-7c3.7-3,6.6-6.6,8.6-10.8c2-4.2,3-8.8,3-13.8c0-7.9-2.4-14.2-7.1-19C378.3,210,370.5,206.3,359.8,203.6z"/>
		<path fill="#282547" d="M467.4,244.3c-1.9,0.6-3.9,1.2-6,1.7c-2.1,0.5-4.2,0.7-6.3,0.7c-4.8,0-8.9-1.9-12.1-5.6
			c-3.2-3.7-4.9-8.6-4.9-14.5l-0.2-41.4h32.9v-21.8h-32.9v-29.6h-16.6c-0.6,5.1-1.2,10.1-2.1,13.7c-0.8,3.6-1.9,6.6-3.3,9.1
			c-1.4,2.5-3.2,4.5-5.6,6c-2.3,1.5-5.4,2.7-9.1,3.5v19.1h12.4v42.9c0,6.1,0.9,11.6,2.7,16.6c1.8,5,4.3,9.2,7.5,12.7
			c3.2,3.5,7,6.3,11.5,8.2c4.5,1.9,9.4,2.9,14.6,2.9c3.6,0,6.8-0.2,9.7-0.7c2.9-0.5,5.4-1,7.4-1.6c2-0.5,3.6-1.1,4.9-1.8
			c1.2-0.6,1.9-1,2.1-1.1v-21.8c-0.1,0.1-0.8,0.5-2,1C470.8,243.1,469.3,243.7,467.4,244.3z"/>
		<path fill="#282547" d="M573.9,176.1c-4.5-4.7-9.9-8.3-16.2-10.9c-6.3-2.6-13.3-3.8-21-3.8c-7.7,0-14.7,1.3-21,3.8
			c-6.3,2.6-11.7,6.2-16.2,10.9c-4.5,4.7-8,10.3-10.5,16.9c-2.5,6.6-3.7,13.8-3.7,21.9c0,8,1.2,15.3,3.7,22c2.5,6.6,6,12.3,10.5,17
			c4.5,4.7,9.9,8.3,16.2,10.9c6.3,2.6,13.3,3.8,21,3.8c7.7,0,14.7-1.3,21-3.8c6.3-2.6,11.7-6.2,16.2-10.9c4.5-4.7,8-10.4,10.5-17
			c2.5-6.6,3.7-13.9,3.7-22c0-8-1.2-15.3-3.7-21.9C581.9,186.4,578.4,180.8,573.9,176.1z M556.4,237.9c-5,5.9-11.5,8.8-19.7,8.8
			c-8.2,0-14.7-2.9-19.7-8.8c-5-5.9-7.5-13.6-7.5-23.1c0-9.5,2.5-17.2,7.5-23c5-5.8,11.5-8.7,19.7-8.7c8.1,0,14.7,2.9,19.7,8.7
			c5,5.8,7.5,13.5,7.5,23C563.8,224.4,561.3,232.1,556.4,237.9z"/>
		<path fill="#282547" d="M692.1,174.7c-3.3-4.2-7.4-7.5-12.1-9.8c-4.8-2.3-10-3.5-15.6-3.5c-8.2,0-15.1,2.2-20.9,6.5
			c-5.2,3.9-9.7,9.9-13.7,18.1l-1.4-22.6h-21.3v103h24.2v-56.3c0-8.1,2.2-14.7,6.5-19.6c4.4-4.9,10.1-7.4,17.3-7.4
			c7,0,12.7,2.5,16.9,7.4c4.2,4.9,6.3,11.4,6.3,19.6v56.3h24.2v-56.3c0-7.3-0.9-14-2.7-20C697.9,184.1,695.4,178.9,692.1,174.7z"/>
		<rect x="724.9" y="116.7" fill="#282547" width="24.2" height="149.7"/>
		<path fill="#282547" d="M872.2,163.4l-60.9,152.7h-26.1l21-52.6l-39.8-100.1h26.5l19.3,51.2c1,2.6,1.9,5.6,2.7,8.8
			c0.8,3.2,1.6,6.3,2.3,9.2c0.8,3.5,1.6,6.8,2.3,10.2h0.4c0.7-3.3,1.5-6.7,2.3-10.2c0.7-2.9,1.4-6,2.3-9.2c0.8-3.2,1.7-6.2,2.7-8.8
			l19.5-51.2H872.2z"/>
	</g>
	<g>
		<g>
			<path fill-rule="evenodd" clip-rule="evenodd" fill="#ED216F" d="M233.2,184.9c-8,0-14.5,6.6-14.5,14.7c0,8.1,6.5,14.7,14.5,14.7
				c8,0,14.5-6.6,14.5-14.7C247.7,191.6,241.2,184.9,233.2,184.9z"/>
			<path fill-rule="evenodd" clip-rule="evenodd" fill="#ED216F" d="M193.9,184.9h-28.3c-8,0-14.5,6.6-14.5,14.7
				c0,8.1,6.5,14.7,14.5,14.7h28.3c8,0,14.5-6.6,14.5-14.7C208.3,191.6,201.8,184.9,193.9,184.9z"/>
		</g>
		<g>
			<path fill-rule="evenodd" clip-rule="evenodd" fill="#ED216F" d="M251.3,236.5h-64.6c-8,0-14.5,6.6-14.5,14.7
				c0,8.1,6.5,14.7,14.5,14.7h64.6c8,0,14.5-6.6,14.5-14.7C265.8,243.1,259.3,236.5,251.3,236.5z"/>
			<path fill-rule="evenodd" clip-rule="evenodd" fill="#ED216F" d="M147.4,236.5c-8,0-14.5,6.6-14.5,14.7c0,8.1,6.5,14.7,14.5,14.7
				c8,0,14.5-6.6,14.5-14.7C161.9,243.1,155.4,236.5,147.4,236.5z"/>
		</g>
		<path fill-rule="evenodd" clip-rule="evenodd" fill="#ED216F" d="M209,133.3h-19.2c-8,0-14.5,6.6-14.5,14.7
			c0,8.1,6.5,14.7,14.5,14.7H209c8,0,14.5-6.6,14.5-14.7C223.4,140,216.9,133.3,209,133.3z"/>
	</g>
</g>
</svg>
